<svg width="24" height="24" viewBox="0 0 24 24" fill="none" xmlns="http://www.w3.org/2000/svg">
<path d="M12.8976 21.968C12.3676 21.97 11.8576 21.758 11.4836 21.382L3.64662 13.547C3.44229 13.3433 3.28461 13.0978 3.18447 12.8272C3.08433 12.5567 3.04412 12.2676 3.06662 11.98L3.56662 5.414C3.60116 4.93598 3.80714 4.4865 4.14668 4.14825C4.48621 3.81 4.93647 3.60573 5.41462 3.573L11.9806 3.073C12.0326 3.062 12.0836 3.062 12.1356 3.062C12.6656 3.062 13.1726 3.272 13.5456 3.648L21.3836 11.482C21.5694 11.6677 21.7168 11.8882 21.8174 12.1309C21.9179 12.3736 21.9697 12.6338 21.9697 12.8965C21.9697 13.1592 21.9179 13.4193 21.8174 13.6621C21.7168 13.9048 21.5694 14.1253 21.3836 14.311L14.3116 21.382C14.1264 21.5683 13.906 21.716 13.6633 21.8166C13.4206 21.9172 13.1603 21.9687 12.8976 21.968ZM8.65462 6.654C8.32573 6.65409 8.00193 6.73529 7.71192 6.89041C7.42191 7.04552 7.17462 7.26977 6.99197 7.54328C6.80932 7.81678 6.69693 8.13112 6.66477 8.45843C6.63261 8.78575 6.68167 9.11594 6.8076 9.41977C6.93352 9.7236 7.13244 9.99168 7.38671 10.2003C7.64099 10.4089 7.94279 10.5515 8.26537 10.6156C8.58795 10.6797 8.92137 10.6633 9.23608 10.5678C9.55079 10.4723 9.83709 10.3006 10.0696 10.068L10.0766 10.062L10.0836 10.055L10.0756 10.062C10.3536 9.78156 10.5424 9.42511 10.6181 9.03758C10.6938 8.65004 10.6531 8.24876 10.5012 7.8843C10.3492 7.51985 10.0928 7.20853 9.76416 6.98959C9.43555 6.77065 9.04948 6.65388 8.65462 6.654Z" fill="#9F9F9F"/>
</svg>
