<svg width="85" height="36" viewBox="0 0 85 36" fill="none" xmlns="http://www.w3.org/2000/svg">
<path d="M12.456 9.152V12.44H5.592V15.992H10.728V19.184H5.592V26H1.488V9.152H12.456ZM27.837 12.608V26H23.733V24.176C23.317 24.768 22.749 25.248 22.029 25.616C21.325 25.968 20.541 26.144 19.677 26.144C18.653 26.144 17.749 25.92 16.965 25.472C16.181 25.008 15.573 24.344 15.141 23.48C14.709 22.616 14.493 21.6 14.493 20.432V12.608H18.573V19.88C18.573 20.776 18.805 21.472 19.269 21.968C19.733 22.464 20.357 22.712 21.141 22.712C21.941 22.712 22.573 22.464 23.037 21.968C23.501 21.472 23.733 20.776 23.733 19.88V12.608H27.837ZM38.9449 12.464C40.5129 12.464 41.7609 12.976 42.6889 14C43.6329 15.008 44.1049 16.4 44.1049 18.176V26H40.0249V18.728C40.0249 17.832 39.7929 17.136 39.3289 16.64C38.8649 16.144 38.2409 15.896 37.4569 15.896C36.6729 15.896 36.0489 16.144 35.5849 16.64C35.1209 17.136 34.8889 17.832 34.8889 18.728V26H30.7849V12.608H34.8889V14.384C35.3049 13.792 35.8649 13.328 36.5689 12.992C37.2729 12.64 38.0649 12.464 38.9449 12.464ZM49.0208 11.216C48.3008 11.216 47.7088 11.008 47.2448 10.592C46.7968 10.16 46.5728 9.632 46.5728 9.008C46.5728 8.368 46.7968 7.84 47.2448 7.424C47.7088 6.992 48.3008 6.776 49.0208 6.776C49.7248 6.776 50.3008 6.992 50.7488 7.424C51.2128 7.84 51.4448 8.368 51.4448 9.008C51.4448 9.632 51.2128 10.16 50.7488 10.592C50.3008 11.008 49.7248 11.216 49.0208 11.216ZM51.0608 12.608V26H46.9568V12.608H51.0608ZM58.1389 14.84C58.6189 14.104 59.2189 13.528 59.9389 13.112C60.6589 12.68 61.4589 12.464 62.3389 12.464V16.808H61.2109C60.1869 16.808 59.4189 17.032 58.9069 17.48C58.3949 17.912 58.1389 18.68 58.1389 19.784V26H54.0349V12.608H58.1389V14.84ZM70.3965 26.192C69.0845 26.192 67.9005 25.912 66.8445 25.352C65.8045 24.792 64.9805 23.992 64.3725 22.952C63.7805 21.912 63.4845 20.696 63.4845 19.304C63.4845 17.928 63.7885 16.72 64.3965 15.68C65.0045 14.624 65.8365 13.816 66.8925 13.256C67.9485 12.696 69.1325 12.416 70.4445 12.416C71.7565 12.416 72.9405 12.696 73.9965 13.256C75.0525 13.816 75.8845 14.624 76.4925 15.68C77.1005 16.72 77.4045 17.928 77.4045 19.304C77.4045 20.68 77.0925 21.896 76.4685 22.952C75.8605 23.992 75.0205 24.792 73.9485 25.352C72.8925 25.912 71.7085 26.192 70.3965 26.192ZM70.3965 22.64C71.1805 22.64 71.8445 22.352 72.3885 21.776C72.9485 21.2 73.2285 20.376 73.2285 19.304C73.2285 18.232 72.9565 17.408 72.4125 16.832C71.8845 16.256 71.2285 15.968 70.4445 15.968C69.6445 15.968 68.9805 16.256 68.4525 16.832C67.9245 17.392 67.6605 18.216 67.6605 19.304C67.6605 20.376 67.9165 21.2 68.4285 21.776C68.9565 22.352 69.6125 22.64 70.3965 22.64ZM81.5018 26.192C80.7818 26.192 80.1898 25.984 79.7258 25.568C79.2778 25.136 79.0538 24.608 79.0538 23.984C79.0538 23.344 79.2778 22.808 79.7258 22.376C80.1898 21.944 80.7818 21.728 81.5018 21.728C82.2058 21.728 82.7818 21.944 83.2298 22.376C83.6938 22.808 83.9258 23.344 83.9258 23.984C83.9258 24.608 83.6938 25.136 83.2298 25.568C82.7818 25.984 82.2058 26.192 81.5018 26.192Z" fill="black"/>
</svg>
