<svg width="20" height="20" viewBox="0 0 20 20" fill="none" xmlns="http://www.w3.org/2000/svg">
<path d="M1.66602 15.8333C1.66602 17.25 2.74935 18.3333 4.16602 18.3333H15.8327C17.2493 18.3333 18.3327 17.25 18.3327 15.8333V9.16663H1.66602V15.8333ZM15.8327 3.33329H14.166V2.49996C14.166 1.99996 13.8327 1.66663 13.3327 1.66663C12.8327 1.66663 12.4993 1.99996 12.4993 2.49996V3.33329H7.49935V2.49996C7.49935 1.99996 7.16602 1.66663 6.66602 1.66663C6.16602 1.66663 5.83268 1.99996 5.83268 2.49996V3.33329H4.16602C2.74935 3.33329 1.66602 4.41663 1.66602 5.83329V7.49996H18.3327V5.83329C18.3327 4.41663 17.2493 3.33329 15.8327 3.33329Z" fill="#9F9F9F"/>
</svg>
