<svg width="28" height="28" viewBox="0 0 28 28" fill="none" xmlns="http://www.w3.org/2000/svg">
<path d="M23.334 14V8.16663H25.6673V15.1666H23.334M23.334 19.8333H25.6673V17.5H23.334M11.6673 15.1666C14.7823 15.1666 21.0007 16.73 21.0007 19.8333V23.3333H2.33398V19.8333C2.33398 16.73 8.55232 15.1666 11.6673 15.1666ZM11.6673 4.66663C12.905 4.66663 14.092 5.15829 14.9672 6.03346C15.8423 6.90863 16.334 8.09562 16.334 9.33329C16.334 10.571 15.8423 11.758 14.9672 12.6331C14.092 13.5083 12.905 14 11.6673 14C10.4296 14 9.24266 13.5083 8.36749 12.6331C7.49232 11.758 7.00065 10.571 7.00065 9.33329C7.00065 8.09562 7.49232 6.90863 8.36749 6.03346C9.24266 5.15829 10.4296 4.66663 11.6673 4.66663ZM11.6673 17.3833C8.20232 17.3833 4.55065 19.0866 4.55065 19.8333V21.1166H18.784V19.8333C18.784 19.0866 15.1323 17.3833 11.6673 17.3833ZM11.6673 6.88329C11.0175 6.88329 10.3944 7.14142 9.93491 7.60088C9.47544 8.06034 9.21732 8.68351 9.21732 9.33329C9.21732 9.98307 9.47544 10.6062 9.93491 11.0657C10.3944 11.5252 11.0175 11.7833 11.6673 11.7833C12.3171 11.7833 12.9403 11.5252 13.3997 11.0657C13.8592 10.6062 14.1173 9.98307 14.1173 9.33329C14.1173 8.68351 13.8592 8.06034 13.3997 7.60088C12.9403 7.14142 12.3171 6.88329 11.6673 6.88329Z" fill="black"/>
</svg>
