<svg width="20" height="20" viewBox="0 0 20 20" fill="none" xmlns="http://www.w3.org/2000/svg">
<path d="M1.66602 15.8333C1.66602 17.25 2.74935 18.3333 4.16602 18.3333H15.8327C17.2493 18.3333 18.3327 17.25 18.3327 15.8333V9.16667H1.66602V15.8333ZM15.8327 3.33334H14.166V2.50001C14.166 2.00001 13.8327 1.66667 13.3327 1.66667C12.8327 1.66667 12.4993 2.00001 12.4993 2.50001V3.33334H7.49935V2.50001C7.49935 2.00001 7.16602 1.66667 6.66602 1.66667C6.16602 1.66667 5.83268 2.00001 5.83268 2.50001V3.33334H4.16602C2.74935 3.33334 1.66602 4.41667 1.66602 5.83334V7.50001H18.3327V5.83334C18.3327 4.41667 17.2493 3.33334 15.8327 3.33334Z" fill="#9F9F9F"/>
</svg>
